<svg width="24" height="24" viewBox="0 0 24 24" fill="none" xmlns="http://www.w3.org/2000/svg">
<path d="M20.9998 11.9998C20.9998 7.031 16.9686 2.99976 11.9998 2.99976C7.03107 2.99976 2.99982 7.031 2.99982 11.9998C2.99982 16.9685 7.03107 20.9997 11.9998 20.9997C16.9686 20.9997 20.9998 16.9685 20.9998 11.9998Z" stroke="#003893" stroke-width="1.5" stroke-miterlimit="10"/>
<path d="M11.7308 7.78383L11.9999 13.5002L12.2685 7.78383C12.2702 7.74728 12.2643 7.71078 12.2514 7.67656C12.2385 7.64234 12.2187 7.61111 12.1933 7.58479C12.1679 7.55846 12.1374 7.5376 12.1037 7.52346C12.0699 7.50933 12.0337 7.50222 11.9971 7.50258V7.50258C11.9609 7.50292 11.9252 7.51054 11.8921 7.52498C11.859 7.53943 11.8291 7.5604 11.8042 7.58665C11.7794 7.6129 11.7601 7.64389 11.7475 7.67777C11.7349 7.71165 11.7292 7.74772 11.7308 7.78383V7.78383Z" stroke="#003893" stroke-width="1.5" stroke-linecap="round" stroke-linejoin="round"/>
<path d="M11.9999 17.2454C11.8145 17.2454 11.6332 17.1904 11.479 17.0874C11.3249 16.9844 11.2047 16.8379 11.1337 16.6666C11.0628 16.4953 11.0442 16.3068 11.0804 16.125C11.1166 15.9431 11.2059 15.7761 11.337 15.6449C11.4681 15.5138 11.6351 15.4245 11.817 15.3884C11.9988 15.3522 12.1873 15.3708 12.3586 15.4417C12.5299 15.5127 12.6764 15.6328 12.7794 15.787C12.8824 15.9412 12.9374 16.1224 12.9374 16.3079C12.9374 16.5565 12.8386 16.795 12.6628 16.9708C12.487 17.1466 12.2485 17.2454 11.9999 17.2454Z" fill="#003893"/>
</svg>
