<svg width="24" height="24" viewBox="0 0 24 24" fill="none" xmlns="http://www.w3.org/2000/svg">
<path d="M19.0779 6.00046H8.67169C7.19606 6.00046 5.99982 7.1967 5.99982 8.67233V19.0786C5.99982 20.5542 7.19606 21.7505 8.67169 21.7505H19.0779C20.5536 21.7505 21.7498 20.5542 21.7498 19.0786V8.67233C21.7498 7.1967 20.5536 6.00046 19.0779 6.00046Z" stroke="#0D7FE9" stroke-width="1.5" stroke-linejoin="round"/>
<path d="M17.9765 6.00018L18 4.87518C17.998 4.1796 17.7208 3.51307 17.2289 3.02121C16.7371 2.52936 16.0705 2.25216 15.375 2.25018H5.24997C4.45504 2.25253 3.69334 2.56936 3.13124 3.13146C2.56914 3.69356 2.25232 4.45526 2.24997 5.25018V15.3752C2.25195 16.0708 2.52915 16.7373 3.021 17.2291C3.51285 17.721 4.17938 17.9982 4.87497 18.0002H5.99997" stroke="#0D7FE9" stroke-width="1.5" stroke-linecap="round" stroke-linejoin="round"/>
</svg>
