<svg width="20" height="20" viewBox="0 0 20 20" fill="none" xmlns="http://www.w3.org/2000/svg">
<path fill-rule="evenodd" clip-rule="evenodd" d="M10.9591 2.89725C10.4294 2.36758 9.57062 2.36758 9.04095 2.89725L7.85842 4.07978C7.71777 4.22043 7.52701 4.29945 7.32809 4.29945H5.65575C4.90668 4.29945 4.29945 4.90668 4.29945 5.65575V7.32809C4.29945 7.52701 4.22043 7.71777 4.07978 7.85842L2.89725 9.04095C2.36758 9.57062 2.36758 10.4294 2.89725 10.9591L4.07978 12.1416C4.22043 12.2822 4.29945 12.473 4.29945 12.6719V14.3442C4.29945 15.0933 4.90668 15.7006 5.65575 15.7006H7.32809C7.52701 15.7006 7.71777 15.7796 7.85842 15.9202L9.04095 17.1027C9.57062 17.6324 10.4294 17.6324 10.9591 17.1027L12.1416 15.9202C12.2822 15.7796 12.473 15.7006 12.6719 15.7006H14.3442C15.0933 15.7006 15.7006 15.0933 15.7006 14.3443V12.6719C15.7006 12.473 15.7796 12.2822 15.9202 12.1416L17.1027 10.9591C17.6324 10.4294 17.6324 9.57062 17.1027 9.04095L15.9202 7.85842C15.7796 7.71777 15.7006 7.52701 15.7006 7.32809V5.65575C15.7006 4.90668 15.0933 4.29945 14.3442 4.29945H12.6719C12.473 4.29945 12.2822 4.22043 12.1416 4.07978L10.9591 2.89725ZM7.98029 1.83659C9.09575 0.721136 10.9043 0.721136 12.0197 1.83659L12.9826 2.79945H14.3442C15.9217 2.79945 17.2006 4.07826 17.2006 5.65575V7.01743L18.1634 7.98029C19.2789 9.09575 19.2789 10.9043 18.1634 12.0197L17.2006 12.9826V14.3443C17.2006 15.9217 15.9217 17.2006 14.3442 17.2006H12.9826L12.0197 18.1634C10.9043 19.2789 9.09575 19.2789 7.98029 18.1634L7.01743 17.2006H5.65575C4.07826 17.2006 2.79945 15.9217 2.79945 14.3442V12.9826L1.83659 12.0197C0.721137 10.9043 0.721136 9.09575 1.83659 7.98029L2.79945 7.01743V5.65575C2.79945 4.07826 4.07826 2.79945 5.65575 2.79945H7.01743L7.98029 1.83659ZM13.6767 6.13321C14.0173 6.36886 14.1024 6.83604 13.8668 7.17669L9.37017 13.6767C9.23285 13.8752 9.00838 13.9955 8.76705 13.9999C8.52571 14.0043 8.29701 13.8923 8.15254 13.6989L6.14917 11.0174C5.90125 10.6855 5.96928 10.2155 6.30112 9.96763C6.63295 9.71972 7.10292 9.78775 7.35083 10.1196L8.72997 11.9656L12.6332 6.32331C12.8689 5.98266 13.336 5.89755 13.6767 6.13321Z" fill="#0D7FE9"/>
</svg>
