<svg width="24" height="24" viewBox="0 0 24 24" fill="none" xmlns="http://www.w3.org/2000/svg">
<path d="M4.82422 21.1777H20.166C21.6309 21.1777 22.5488 20.123 22.5488 18.7949C22.5488 18.3945 22.4512 17.9941 22.2363 17.623L14.5508 3.90234C14.1113 3.11133 13.3008 2.69141 12.5 2.69141C11.6895 2.69141 10.8789 3.11133 10.4395 3.90234L2.76367 17.6328C2.55859 18.0039 2.44141 18.3945 2.44141 18.7949C2.44141 20.123 3.35938 21.1777 4.82422 21.1777ZM12.5 14.6543C11.9922 14.6543 11.7188 14.3613 11.709 13.8438L11.5723 8.53125C11.5625 8.01367 11.9434 7.64258 12.4902 7.64258C13.0273 7.64258 13.4277 8.02344 13.418 8.54102L13.2812 13.8438C13.2715 14.3711 12.9883 14.6543 12.5 14.6543ZM12.5 17.9258C11.9238 17.9258 11.416 17.457 11.416 16.8809C11.416 16.2949 11.9141 15.8262 12.5 15.8262C13.0957 15.8262 13.5938 16.2852 13.5938 16.8809C13.5938 17.4668 13.0859 17.9258 12.5 17.9258Z" fill="#C11A00"/>
</svg>
