<svg width="24" height="24" viewBox="0 0 24 24" fill="none" xmlns="http://www.w3.org/2000/svg">
<path d="M8.62499 11.9985C9.24631 11.9985 9.74999 11.4949 9.74999 10.8735C9.74999 10.2522 9.24631 9.74854 8.62499 9.74854C8.00367 9.74854 7.49999 10.2522 7.49999 10.8735C7.49999 11.4949 8.00367 11.9985 8.62499 11.9985Z" fill="#e85600"/>
<path d="M12 13.4978C14.129 13.4978 15.9197 14.882 16.4864 16.7711C16.5023 16.8275 16.5048 16.8868 16.4936 16.9444C16.4824 17.0019 16.4579 17.056 16.422 17.1024C16.3862 17.1487 16.3399 17.186 16.2871 17.2113C16.2342 17.2365 16.1761 17.249 16.1175 17.2478H7.88202C7.82362 17.2487 7.76582 17.2359 7.71323 17.2105C7.66064 17.1851 7.61471 17.1477 7.57911 17.1014C7.54351 17.0551 7.51921 17.0011 7.50816 16.9438C7.49711 16.8864 7.49961 16.8273 7.51546 16.7711C8.07749 14.882 9.86858 13.4978 12 13.4978Z" fill="#e85600"/>
<path d="M15.3749 11.9985C15.9963 11.9985 16.4999 11.4949 16.4999 10.8735C16.4999 10.2522 15.9963 9.74854 15.3749 9.74854C14.7536 9.74854 14.2499 10.2522 14.2499 10.8735C14.2499 11.4949 14.7536 11.9985 15.3749 11.9985Z" fill="#e85600"/>
<path d="M12.0008 21.7495C17.3856 21.7495 21.7508 17.3843 21.7508 11.9995C21.7508 6.61473 17.3856 2.24951 12.0008 2.24951C6.61606 2.24951 2.25084 6.61473 2.25084 11.9995C2.25084 17.3843 6.61606 21.7495 12.0008 21.7495Z" stroke="#e85600" stroke-width="1.5" stroke-miterlimit="10"/>
</svg>