<svg width="24" height="24" viewBox="0 0 24 24" fill="none" xmlns="http://www.w3.org/2000/svg">
<path d="M21.0625 11.9492C21.0625 11.7051 20.9648 11.4805 20.7695 11.2949L14.2949 4.83984C14.0801 4.625 13.875 4.54688 13.6406 4.54688C13.1621 4.54688 12.791 4.89844 12.791 5.38672C12.791 5.62109 12.8691 5.8457 13.0254 6.00195L15.2129 8.22852L18.4941 11.2266L16.1406 11.0801H3.78711C3.2793 11.0801 2.92773 11.4414 2.92773 11.9492C2.92773 12.457 3.2793 12.8184 3.78711 12.8184H16.1406L18.5039 12.6719L15.2129 15.6699L13.0254 17.8965C12.8691 18.043 12.791 18.2773 12.791 18.5117C12.791 19 13.1621 19.3516 13.6406 19.3516C13.875 19.3516 14.0801 19.2637 14.2754 19.0781L20.7695 12.6035C20.9648 12.418 21.0625 12.1934 21.0625 11.9492Z" fill="#003893"/>
</svg>
