<svg width="24" height="24" viewBox="0 0 24 24" fill="none" xmlns="http://www.w3.org/2000/svg">
<g clip-path="url(#clip0)">
<path d="M20.1366 9.80013C19.4307 9.48982 18.6188 9.86154 18.3319 10.6261L16.6876 14.6245H16.1593V3.74951C16.1593 2.92451 15.5358 2.24951 14.7741 2.24951C14.0119 2.24951 13.389 2.92451 13.389 3.74951V10.8628L12.6961 10.8745V1.49951C12.6961 0.674512 12.0727 -0.000488281 11.311 -0.000488281C10.5493 -0.000488281 9.92584 0.674512 9.92584 1.49951V10.8628L9.23443 10.8745V2.99951C9.23443 2.17451 8.611 1.49951 7.84928 1.49951C7.08709 1.49951 6.46412 2.17451 6.46412 2.99951V11.6128L5.77037 11.6245V5.99951C5.77037 5.17451 5.14693 4.49951 4.38522 4.49951C3.6235 4.49951 3.00006 5.17451 3.00006 5.99951V16.1245C3.00006 19.6776 4.74053 23.9995 10.9219 23.9995C12.8344 23.9995 14.6447 23.6714 15.6404 23.0151C16.2647 22.6036 16.8018 22.073 17.221 21.4537C17.5342 20.9916 17.7863 20.4909 17.971 19.964L20.8983 11.7544C21.1875 10.9898 20.8426 10.1109 20.1366 9.80013Z" fill="#003893"/>
</g>
<defs>
<clipPath id="clip0">
<rect width="24" height="24" fill="white" transform="translate(0 -0.000244141)"/>
</clipPath>
</defs>
</svg>
