<svg width="24" height="24" viewBox="0 0 24 24" fill="none" xmlns="http://www.w3.org/2000/svg">
<path d="M12 2.62598C6.83062 2.62598 2.625 6.8316 2.625 12.001C2.625 17.1703 6.83062 21.376 12 21.376C17.1694 21.376 21.375 17.1703 21.375 12.001C21.375 6.8316 17.1694 2.62598 12 2.62598ZM12 6.46972C12.241 6.46972 12.4767 6.5412 12.6771 6.67512C12.8775 6.80904 13.0337 6.99938 13.126 7.22208C13.2182 7.44478 13.2424 7.68983 13.1953 7.92624C13.1483 8.16265 13.0322 8.37981 12.8618 8.55026C12.6913 8.7207 12.4742 8.83678 12.2378 8.8838C12.0013 8.93083 11.7563 8.9067 11.5336 8.81445C11.3109 8.72221 11.1206 8.566 10.9866 8.36557C10.8527 8.16515 10.7812 7.92952 10.7812 7.68847C10.7812 7.36524 10.9096 7.05525 11.1382 6.82669C11.3668 6.59813 11.6768 6.46972 12 6.46972ZM14.25 17.0635H10.125C9.92608 17.0635 9.73532 16.9845 9.59467 16.8438C9.45401 16.7031 9.375 16.5124 9.375 16.3135C9.375 16.1146 9.45401 15.9238 9.59467 15.7831C9.73532 15.6425 9.92608 15.5635 10.125 15.5635H11.4375V11.4385H10.6875C10.4886 11.4385 10.2978 11.3595 10.1572 11.2188C10.0165 11.0781 9.9375 10.8874 9.9375 10.6885C9.9375 10.4896 10.0165 10.2988 10.1572 10.1581C10.2978 10.0175 10.4886 9.93847 10.6875 9.93847H12.1875C12.3864 9.93847 12.5772 10.0175 12.7178 10.1581C12.8585 10.2988 12.9375 10.4896 12.9375 10.6885V15.5635H14.25C14.4489 15.5635 14.6397 15.6425 14.7803 15.7831C14.921 15.9238 15 16.1146 15 16.3135C15 16.5124 14.921 16.7031 14.7803 16.8438C14.6397 16.9845 14.4489 17.0635 14.25 17.0635Z" fill="#0D7FE9"/>
</svg>
