<svg width="20" height="20" viewBox="0 0 20 20" fill="none" xmlns="http://www.w3.org/2000/svg">
<path fill-rule="evenodd" clip-rule="evenodd" d="M6.1 7C6.1 4.79086 7.89086 3 10.1 3C12.3091 3 14.1 4.79086 14.1 7V8.5H14.25C15.2165 8.5 16 9.2835 16 10.25V15.25C16 16.2165 15.2165 17 14.25 17H5.75C4.7835 17 4 16.2165 4 15.25V10.25C4 9.2835 4.7835 8.5 5.75 8.5H6.1V7ZM7.6 8.5H12.6V7C12.6 5.61929 11.4807 4.5 10.1 4.5C8.71929 4.5 7.6 5.61929 7.6 7V8.5ZM5.75 10C5.61193 10 5.5 10.1119 5.5 10.25V15.25C5.5 15.3881 5.61193 15.5 5.75 15.5H14.25C14.3881 15.5 14.5 15.3881 14.5 15.25V10.25C14.5 10.1119 14.3881 10 14.25 10H5.75Z" fill="#0D7FE9"/>
</svg>
