<svg width="24" height="24" viewBox="0 0 24 24" fill="none" xmlns="http://www.w3.org/2000/svg">
<path d="M6.07422 11.7246L3.38867 16.9883C3.13477 17.4863 3.00781 18.0137 3.00781 18.5117C3.00781 19.9277 4.02344 21.1387 5.74219 21.1387H19.2578C20.9766 21.1387 21.9922 19.9277 21.9922 18.5117C21.9922 18.0137 21.8652 17.4863 21.6113 16.9785L14.8242 3.67773C14.375 2.78906 13.418 2.22266 12.5 2.22266C11.5918 2.22266 10.625 2.78906 10.1758 3.67773L7.82227 8.28711L8.97461 9.42969L11.5137 4.37109C11.7285 3.95117 12.0898 3.67773 12.5 3.67773C12.9102 3.67773 13.2715 3.95117 13.4863 4.37109L18.8184 14.9961H13.0176L4.67773 6.65625C4.3457 6.33398 3.91602 6.32422 3.57422 6.65625C3.22266 6.99805 3.24219 7.44727 3.57422 7.7793L10.8008 14.9961H6.18164L7.24609 12.8965L6.07422 11.7246ZM13.3203 13.7656V6.91992C13.3203 6.43164 13.0273 6.11914 12.5391 6.11914C12.0605 6.11914 11.7676 6.43164 11.7676 6.91992V12.2129L13.3203 13.7656ZM5.74219 19.6055C5.0293 19.6055 4.60938 19.0586 4.60938 18.4531C4.60938 18.248 4.6582 18.0332 4.75586 17.8184L5.41992 16.5098L19.5703 16.4902L20.2441 17.8184C20.3516 18.0234 20.4004 18.2383 20.4004 18.4434C20.4004 19.0586 19.9805 19.6055 19.2578 19.6055H5.74219Z" fill="#003893"/>
</svg>
