<svg width="24" height="24" viewBox="0 0 24 24" fill="none" xmlns="http://www.w3.org/2000/svg">
<path d="M12 21.9102C17.4492 21.9102 21.9609 17.3887 21.9609 11.9492C21.9609 6.5 17.4395 1.98828 11.9902 1.98828C6.55078 1.98828 2.03906 6.5 2.03906 11.9492C2.03906 17.3887 6.56055 21.9102 12 21.9102ZM10.8965 16.7246C10.5645 16.7246 10.291 16.5879 10.0371 16.2461L7.58594 13.2383C7.43945 13.043 7.35156 12.8281 7.35156 12.6035C7.35156 12.1641 7.69336 11.8027 8.13281 11.8027C8.41602 11.8027 8.63086 11.8906 8.875 12.2129L10.8574 14.7715L15.0273 8.07227C15.2129 7.7793 15.4668 7.62305 15.7207 7.62305C16.1504 7.62305 16.5508 7.91602 16.5508 8.375C16.5508 8.58984 16.4238 8.81445 16.3066 9.01953L11.7168 16.2461C11.5117 16.5684 11.2285 16.7246 10.8965 16.7246Z" fill="#01AB33"/>
</svg>
