<svg width="24" height="24" viewBox="0 0 24 24" fill="none" xmlns="http://www.w3.org/2000/svg">
<path d="M19.5 6.74805H4.49997C3.25733 6.74805 2.24997 7.75541 2.24997 8.99805V17.998C2.24997 19.2407 3.25733 20.248 4.49997 20.248H19.5C20.7426 20.248 21.75 19.2407 21.75 17.998V8.99805C21.75 7.75541 20.7426 6.74805 19.5 6.74805Z" stroke="#0D7FE9" stroke-width="1.5" stroke-linejoin="round"/>
<path d="M19.2825 6.74876V5.34251C19.2823 4.9976 19.2061 4.65698 19.0592 4.34493C18.9123 4.03288 18.6983 3.7571 18.4325 3.53727C18.1668 3.31744 17.8558 3.15897 17.5217 3.07318C17.1876 2.98739 16.8388 2.97638 16.5 3.04094L4.15497 5.14797C3.61887 5.25014 3.13523 5.53618 2.78746 5.95677C2.43969 6.37737 2.2496 6.90613 2.24997 7.45188V9.74875" stroke="#0D7FE9" stroke-width="1.5" stroke-linejoin="round"/>
<path d="M17.25 14.9973C16.9533 14.9973 16.6633 14.9093 16.4166 14.7445C16.1699 14.5797 15.9777 14.3454 15.8642 14.0713C15.7506 13.7973 15.7209 13.4957 15.7788 13.2047C15.8367 12.9137 15.9795 12.6464 16.1893 12.4367C16.3991 12.2269 16.6664 12.084 16.9573 12.0261C17.2483 11.9683 17.5499 11.998 17.824 12.1115C18.0981 12.225 18.3324 12.4173 18.4972 12.664C18.662 12.9106 18.75 13.2006 18.75 13.4973C18.75 13.8951 18.5919 14.2767 18.3106 14.558C18.0293 14.8393 17.6478 14.9973 17.25 14.9973Z" fill="#0D7FE9"/>
</svg>