<svg width="177" height="26" viewBox="0 0 177 26" fill="none" xmlns="http://www.w3.org/2000/svg">
<path d="M42.9908 6.90909V20H46.0717V11.9141H46.1804L49.3253 19.9169H51.294L54.4389 11.9588H54.5476V20H57.6286V6.90909H53.7102L50.3864 15.0142H50.233L46.9091 6.90909H42.9908ZM64.1916 20.1854C66.7676 20.1854 68.4615 18.9389 68.8194 17.0085L65.9494 16.9254C65.7065 17.5774 65.0673 17.929 64.2491 17.929C63.0474 17.929 62.3059 17.13 62.3059 15.9283V15.8452H68.8514V15.0653C68.8514 11.831 66.8826 10.054 64.0957 10.054C61.1298 10.054 59.225 12.0866 59.225 15.1293C59.225 18.2741 61.1042 20.1854 64.1916 20.1854ZM62.3059 14.0298C62.3507 13.0518 63.1241 12.3104 64.1596 12.3104C65.1887 12.3104 65.9302 13.0263 65.943 14.0298H62.3059ZM74.0337 20.1406C75.5167 20.1406 76.3988 19.3161 76.7951 18.4084H76.891V20H79.9847V6.90909H76.859V11.8629H76.7951C76.4244 10.9616 75.5678 10.054 74.021 10.054C71.9691 10.054 70.109 11.6328 70.109 15.0973C70.109 18.4403 71.8668 20.1406 74.0337 20.1406ZM75.1204 17.7053C73.9634 17.7053 73.3178 16.6761 73.3178 15.0909C73.3178 13.5121 73.957 12.4957 75.1204 12.4957C76.2646 12.4957 76.9293 13.4865 76.9293 15.0909C76.9293 16.6825 76.2582 17.7053 75.1204 17.7053ZM81.9615 20H85.0872V10.1818H81.9615V20ZM83.5275 9.03764C84.416 9.03764 85.1319 8.36648 85.1319 7.5419C85.1319 6.71733 84.416 6.05256 83.5275 6.05256C82.6454 6.05256 81.9231 6.71733 81.9231 7.5419C81.9231 8.36648 82.6454 9.03764 83.5275 9.03764ZM93.4112 15.7621C93.4112 16.9062 92.6825 17.5455 91.7557 17.5455C90.7969 17.5455 90.2088 16.8935 90.2024 15.826V10.1818H87.0767V16.4396C87.0831 18.6577 88.4318 20.1278 90.4517 20.1278C91.9219 20.1278 93.0149 19.3736 93.4496 18.1719H93.5518V20H96.5305V10.1818H93.4112V15.7621ZM98.5201 20H101.646V14.1896C101.646 13.218 102.215 12.598 103.033 12.598C103.845 12.598 104.382 13.1669 104.382 14.0746V20H107.386V14.1385C107.386 13.1989 107.904 12.598 108.767 12.598C109.559 12.598 110.122 13.1286 110.122 14.1065V20H113.247V13.3906C113.247 11.3132 111.969 10.054 110.115 10.054C108.664 10.054 107.52 10.8146 107.156 11.9844H107.053C106.791 10.8082 105.737 10.054 104.375 10.054C103.033 10.054 102.01 10.7891 101.601 11.9844H101.492V10.1818H98.5201V20ZM119.051 20H124.926C127.821 20 129.483 18.4531 129.483 16.3374C129.483 14.4453 128.109 13.2564 126.524 13.1861V13.0582C127.962 12.7578 128.972 11.7159 128.972 10.2202C128.972 8.24503 127.45 6.90909 124.51 6.90909H119.051V20ZM122.215 17.4496V14.3303H124.229C125.437 14.3303 126.178 14.9695 126.178 15.973C126.178 16.8999 125.539 17.4496 124.171 17.4496H122.215ZM122.215 12.2912V9.42116H124.018C125.073 9.42116 125.744 9.96449 125.744 10.8338C125.744 11.7543 125.002 12.2912 123.967 12.2912H122.215ZM131.004 20H134.13V14.669C134.13 13.4993 134.961 12.7131 136.08 12.7131C136.45 12.7131 137.007 12.777 137.307 12.8793V10.1626C137.045 10.0923 136.719 10.0476 136.431 10.0476C135.357 10.0476 134.501 10.674 134.143 11.9716H134.041V10.1818H131.004V20ZM138.581 20H141.706V10.1818H138.581V20ZM140.147 9.03764C141.035 9.03764 141.751 8.36648 141.751 7.5419C141.751 6.71733 141.035 6.05256 140.147 6.05256C139.265 6.05256 138.542 6.71733 138.542 7.5419C138.542 8.36648 139.265 9.03764 140.147 9.03764ZM147.282 20.1406C148.765 20.1406 149.647 19.3161 150.043 18.4084H150.139V20H153.233V6.90909H150.107V11.8629H150.043C149.672 10.9616 148.816 10.054 147.269 10.054C145.217 10.054 143.357 11.6328 143.357 15.0973C143.357 18.4403 145.115 20.1406 147.282 20.1406ZM148.368 17.7053C147.211 17.7053 146.566 16.6761 146.566 15.0909C146.566 13.5121 147.205 12.4957 148.368 12.4957C149.513 12.4957 150.177 13.4865 150.177 15.0909C150.177 16.6825 149.506 17.7053 148.368 17.7053ZM159.786 23.8864C162.746 23.8864 164.766 22.5376 164.766 20.0384V10.1818H161.653V11.8629H161.563C161.186 10.9616 160.33 10.054 158.783 10.054C156.731 10.054 154.871 11.6328 154.871 15.0781C154.871 18.4148 156.641 19.8658 158.795 19.8658C160.24 19.8658 161.205 19.1946 161.576 18.2869H161.685V20.0128C161.685 21.2656 160.918 21.7195 159.869 21.7195C158.866 21.7195 158.265 21.3359 158.099 20.7287L155.139 20.8949C155.369 22.6143 156.987 23.8864 159.786 23.8864ZM159.882 17.5902C158.725 17.5902 158.08 16.6506 158.08 15.0781C158.08 13.5121 158.719 12.4957 159.882 12.4957C161.026 12.4957 161.691 13.4865 161.691 15.0781C161.691 16.657 161.02 17.5902 159.882 17.5902ZM171.348 20.1854C173.924 20.1854 175.618 18.9389 175.976 17.0085L173.106 16.9254C172.863 17.5774 172.224 17.929 171.405 17.929C170.204 17.929 169.462 17.13 169.462 15.9283V15.8452H176.008V15.0653C176.008 11.831 174.039 10.054 171.252 10.054C168.286 10.054 166.381 12.0866 166.381 15.1293C166.381 18.2741 168.26 20.1854 171.348 20.1854ZM169.462 14.0298C169.507 13.0518 170.28 12.3104 171.316 12.3104C172.345 12.3104 173.086 13.0263 173.099 14.0298H169.462Z" fill="white"/>
<path d="M2 25C3.66667 19.2069 5.59712 7.62069 1 1C8.66667 13.1379 23.5 29.5 20.75 1L31 25M4.5 12C12.1667 24.1379 23.5 25 24.5 11" stroke="white" stroke-width="1.5" stroke-linecap="square" stroke-linejoin="bevel" stroke-dasharray="2 2"/>
</svg>
